<?xml version="1.0"?>
<svg width="608.58" height="638.82"
    xmlns="http://www.w3.org/2000/svg"
    xmlns:svg="http://www.w3.org/2000/svg">
    <g class="layer" display="inline">
        <title>Layer 1</title>
        <rect fill="#ffffff" height="264.22" id="svg_1" stroke="#c0c0c0" stroke-width="4" transform="matrix(1 0 0 1 0 0)" width="381.78" x="105.05" y="372.55"/>
        <rect fill="#ffffff" height="54.26" id="svg_2" stroke="#c0c0c0" stroke-width="4" transform="matrix(1 0 0 1 0 0)" width="110.38" x="240.15" y="317.91"/>
        <rect fill="#ffffff" height="322.43" id="svg_3" stroke="#c0c0c0" stroke-width="4" transform="matrix(1 0 0 1 0 0)" width="263.53" x="162.47" y="1.28"/>
        <rect fill="#ffffff" height="175.77" id="svg_4" stroke="#c0c0c0" stroke-width="4" transform="matrix(1 0 0 1 0 0)" width="158.76" x="2.72" y="185.36"/>
        <rect fill="#ffffff" height="235.49" id="svg_5" stroke="#c0c0c0" stroke-width="4" width="180.68" x="425.84" y="50.89"/>
        <rect fill="#000000" fill-opacity="0" height="7.62" id="svg_6" stroke="#c0c0c0" width="78.44" x="2.95" y="278.81"/>
        <rect fill="#ffffff" height="231.88" id="svg_7" stroke="#c0c0c0" width="94.59" x="426.97" y="52.57"/>
        <rect fill="#ffffff" height="57.36" id="svg_8" stroke="#c0c0c0" stroke-width="0" transform="matrix(1 0 0 1 0 0)" width="106.25" x="242.28" y="318.33"/>
        <rect fill="#ffffff" height="75.05" id="svg_9" stroke="#000000" stroke-opacity="0" stroke-width="0" transform="matrix(1 0 0 1 0 0)" width="86.62" x="135.72" y="242.35"/>
        <rect fill="#000000" fill-opacity="0" height="233.28" id="svg_14" stroke="#c0c0c0" transform="matrix(1 0 0 1 0 0)" width="8.11" x="517.39" y="52.48"/>
    </g>
</svg>
