<svg width="269" height="269" viewBox="0 0 269 269" fill="none" xmlns="http://www.w3.org/2000/svg">
<path d="M219 0C246.614 0 269 22.3858 269 50L269 219C269 246.614 246.614 269 219 269L50 269C22.3858 269 0 246.614 0 219L0 50C0 22.3858 22.3858 0 50 0L219 0Z" fill="url(#paint0_linear_61_10)"/>
<path d="M-3.05176e-05 222.075V156.404C-3.05176e-05 156.404 1.29072 87.3419 119.249 69.8426C229.418 53.4989 231.84 83.7651 231.84 83.7651C231.84 83.7651 244.551 111.005 119.249 132.191C11.5356 150.404 -3.05176e-05 222.075 -3.05176e-05 222.075Z" fill="white"/>
<path d="M90.7988 181.753L114.32 131.343L173.123 116.378L112.85 179.418L90.7988 181.753Z" fill="white"/>
<path d="M72.639 50.6916L104.659 77.0263L163.978 70.5608L94.2718 46.1336L72.639 50.6916Z" fill="white"/>
<defs>
<linearGradient id="paint0_linear_61_10" x1="269" y1="0" x2="0" y2="269" gradientUnits="userSpaceOnUse">
<stop stop-color="#0066FF"/>
<stop offset="1" stop-color="#E023FF"/>
</linearGradient>
</defs>
</svg>
