<?xml version="1.0"?>
<svg width="381.78000000000003" height="381.78000000000003"
    xmlns="http://www.w3.org/2000/svg"
    xmlns:svg="http://www.w3.org/2000/svg">
    <g class="layer" display="inline">
        <title>Layer 1</title>
        <rect fill="#ffffff" height="376.74" id="svg_1" stroke="#c0c0c0" stroke-width="4" transform="matrix(1 0 0 1 0 0)" width="377.46" x="2.21" y="2.23"/>
        <rect fill="#000000" fill-opacity="0" height="295.73" id="svg_3" stroke="#c0c0c0" stroke-width="3" width="292.48" x="43.49" y="41.69"/>
        <rect fill="#000000" fill-opacity="0" height="294.51" id="svg_4" stroke="#c0c0c0" width="24.03" x="45.09" y="43.37"/>
        <rect fill="#000000" fill-opacity="0" height="293.61" id="svg_6" stroke="#c0c0c0" width="24.03" x="69.05" y="43.74"/>
        <rect fill="#000000" fill-opacity="0" height="294.41" id="svg_7" stroke="#c0c0c0" width="24.03" x="93.2" y="43.21"/>
        <rect fill="#000000" fill-opacity="0" height="294.41" id="svg_8" stroke="#c0c0c0" width="24.03" x="117.49" y="43.61"/>
        <rect fill="#000000" fill-opacity="0" height="294.41" id="svg_9" stroke="#c0c0c0" width="24.03" x="141.6" y="43.31"/>
        <rect fill="#000000" fill-opacity="0" height="294.41" id="svg_10" stroke="#c0c0c0" width="24.03" x="165.63" y="43.19"/>
        <rect fill="#000000" fill-opacity="0" height="294.41" id="svg_11" stroke="#c0c0c0" width="24.03" x="189.91" y="43.03"/>
        <rect fill="#000000" fill-opacity="0" height="294.41" id="svg_12" stroke="#c0c0c0" width="24.03" x="214.1" y="43.41"/>
        <rect fill="#000000" fill-opacity="0" height="294.41" id="svg_13" stroke="#c0c0c0" width="24.03" x="238.18" y="43.41"/>
        <rect fill="#000000" fill-opacity="0" height="294.41" id="svg_14" stroke="#c0c0c0" width="24.03" x="262.18" y="43.27"/>
        <rect fill="#000000" fill-opacity="0" height="294.41" id="svg_15" stroke="#c0c0c0" width="24.03" x="286.18" y="43.27"/>
        <rect fill="#000000" fill-opacity="0" height="294.41" id="svg_16" stroke="#c0c0c0" width="24.03" x="310.58" y="42.87"/>
    </g>
</svg>
