<svg width="868" height="577" viewBox="0 0 868 577" fill="none"
    xmlns="http://www.w3.org/2000/svg">
    <path d="M867.322 42.6017C867.322 21.8469 846.753 7.3622 827.213 14.3564L674.634 68.9687C662.704 73.2386 654.743 84.5431 654.743 97.2139V478.636C654.743 491.249 662.632 502.515 674.485 506.828L827.064 562.35C846.63 569.471 867.322 554.981 867.322 534.159V42.6017Z" fill="black"/>
    <rect x="231" y="77" width="405.722" height="423.556" rx="30" fill="black"/>
    <path d="M0 42.6017C0 21.8469 20.569 7.3622 40.1098 14.3564L192.689 68.9687C204.618 73.2386 212.579 84.5431 212.579 97.2139V478.636C212.579 491.249 204.69 502.515 192.838 506.828L40.2587 562.35C20.6921 569.471 0 554.981 0 534.159V42.6017Z" fill="black"/>
</svg>
